<?xml version="1.0" encoding="UTF-8" standalone="no"?>
<svg
	xmlns:dc="http://purl.org/dc/elements/1.1/"
	xmlns:cc="http://creativecommons.org/ns#"
	xmlns:rdf="http://www.w3.org/1999/02/22-rdf-syntax-ns#"
	xmlns:svg="http://www.w3.org/2000/svg"
	xmlns="http://www.w3.org/2000/svg"
	xmlns:xlink="http://www.w3.org/1999/xlink"
	xmlns:sodipodi="http://sodipodi.sourceforge.net/DTD/sodipodi-0.dtd"
	xmlns:inkscape="http://www.inkscape.org/namespaces/inkscape"
	width="32"
	height="32"
	viewBox="0 0 32 32"
	version="1.1"
	id="svg944"
	inkscape:version="1.0 (4035a4fb49, 2020-05-01)"
	sodipodi:docname="BackSpace.svg"
	inkscape:export-filename="BackSpace.png"
	inkscape:export-xdpi="96"
	inkscape:export-ydpi="96"
>
	<metadata
		id="metadata">
		<rdf:RDF>
			<cc:Work
				rdf:about="">
				<dc:format>image/svg+xml</dc:format>
				<dc:type
					rdf:resource="http://purl.org/dc/dcmitype/StillImage"
				/>
				<dc:title>BackSpace Icon</dc:title>
				<cc:license
					rdf:resource=""
				/>
				<dc:creator>
					<cc:Agent>
						<dc:title>zawa-ch.</dc:title>
					</cc:Agent>
				</dc:creator>
			</cc:Work>
		</rdf:RDF>
	</metadata>
	<defs
		id="defs">
		<filter
			id="filter1"
			inkscape:label="Blur"
			style="color-interpolation-filters:sRGB"
			x="0"
			y="0"
			width="1"
			height="1"
		>
			<feGaussianBlur
				id="feGaussianBlur1"
				result="blur"
				stdDeviation="1 1"
			/>
		</filter>
	</defs>
	<sodipodi:namedview
		id="base"
		units="px"
		pagecolor="#ffffff"
		bordercolor="#666666"
		borderopacity="1.0"
		inkscape:pagecheckerboard="true"
		inkscape:document-units="px"
		inkscape:pageshadow="2"
		inkscape:pageopacity="0.0"
		inkscape:zoom="1"
		inkscape:cx="16"
		inkscape:cy="16"
		inkscape:current-layer="layer1"
	>
		<inkscape:grid
			id="grid1"
			type="xygrid"
			empspacing="8"
		/>
		<inkscape:grid
			id="grid2"
			type="xygrid"
			spacingy="0.5"
			spacingx="0.5"
			empspacing="16"
			dotted="true"
		/>
	</sodipodi:namedview>
	<g
		id="layer2"
		style="display:none"
		inkscape:label="Stroke"
		inkscape:groupmode="layer"
		sodipodi:insensitive="true"
	>
		<path
			id="path3"
			d="m 21,16 v 3 h -8 l -3,-3 3,-3 h 8 z"
			style="fill:#000000;stroke:#000000;stroke-width:1.5;stroke-linecap:round;stroke-linejoin:round"
			sodipodi:nodetypes="ccccccc"
		/>
		<path
			id="path2"
			d="m 16,18 4,-4 m -4,0 4,4"
			style="fill:none;stroke:#ffffff;stroke-width:1.5;stroke-linecap:round;stroke-linejoin:round"
			sodipodi:nodetypes="cccc"
		/>
	</g>
	<g
		 id="layer_b"
		 style="display:none"
		 inkscape:label="Blur"
		 inkscape:groupmode="layer"
		 sodipodi:insensitive="true"
	>
		<use
			id="use1"
			xlink:href="#layer1"
			style="display:inline;filter:url(#filter1)"
		/>
	</g>
	<g
		id="layer1"
		style="display:inline"
		inkscape:label="Layer"
		inkscape:groupmode="layer"
	>
		<path
			id="rect0"
			d="M 4,4 H 28 V 28 H 4 Z"
			style="fill:none;stroke:none"
		/>
		<path
			id="path1"
			d="m 13,12.25 a 0.750075,0.750075 0 0 0 -0.53125,0.21875 l -3,3 a 0.750075,0.750075 0 0 0 0,1.0625 l 3,3 A 0.750075,0.750075 0 0 0 13,19.75 h 8 A 0.750075,0.750075 0 0 0 21.75,19 V 16 13 A 0.750075,0.750075 0 0 0 21,12.25 Z m 7.007812,0.998047 a 0.75,0.75 0 0 1 0.523438,0.220703 0.75,0.75 0 0 1 0,1.0625 L 19.0625,16 l 1.46875,1.46875 a 0.75,0.75 0 0 1 0,1.0625 0.75,0.75 0 0 1 -1.0625,0 L 18,17.0625 16.53125,18.53125 a 0.75,0.75 0 0 1 -1.0625,0 0.75,0.75 0 0 1 0,-1.0625 L 16.9375,16 15.46875,14.53125 a 0.75,0.75 0 0 1 0,-1.0625 0.75,0.75 0 0 1 0.537109,-0.21875 0.75,0.75 0 0 1 0.525391,0.21875 L 18,14.9375 19.46875,13.46875 a 0.75,0.75 0 0 1 0.539062,-0.220703 z"
			style="fill:#000000;fill-rule:nonzero;stroke:none"
		/>
	</g>
</svg>
