<?xml version="1.0" encoding="UTF-8" standalone="no"?>
<svg
   xmlns:dc="http://purl.org/dc/elements/1.1/"
   xmlns:cc="http://creativecommons.org/ns#"
   xmlns:rdf="http://www.w3.org/1999/02/22-rdf-syntax-ns#"
   xmlns:svg="http://www.w3.org/2000/svg"
   xmlns="http://www.w3.org/2000/svg"
   xmlns:xlink="http://www.w3.org/1999/xlink"
   xmlns:sodipodi="http://sodipodi.sourceforge.net/DTD/sodipodi-0.dtd"
   xmlns:inkscape="http://www.inkscape.org/namespaces/inkscape"
   width="32"
   height="32"
   viewBox="0 0 32 32"
   version="1.1"
   id="svg944"
   inkscape:version="1.0 (4035a4fb49, 2020-05-01)"
   sodipodi:docname="BackSpace.svg"
   inkscape:export-filename="BackSpace.png"
   inkscape:export-xdpi="96"
   inkscape:export-ydpi="96">
  <metadata
     id="metadata17">
    <rdf:RDF>
      <cc:Work
         rdf:about="">
        <dc:format>image/svg+xml</dc:format>
        <dc:type
           rdf:resource="http://purl.org/dc/dcmitype/StillImage" />
      </cc:Work>
    </rdf:RDF>
  </metadata>
  <defs
     id="defs938">
    <filter
       style="color-interpolation-filters:sRGB"
       inkscape:label="Blur"
       id="filter1553"
       x="-0.3"
       y="-0.3"
       width="1.6"
       height="1.6">
      <feGaussianBlur
         stdDeviation="2 2"
         result="blur"
         id="feGaussianBlur1551" />
    </filter>
  </defs>
  <sodipodi:namedview
     id="base"
     pagecolor="#ffffff"
     bordercolor="#666666"
     borderopacity="1.0"
     inkscape:pageopacity="0.0"
     inkscape:pageshadow="2"
     inkscape:document-units="px"
     showgrid="false"
     units="px"
     inkscape:pagecheckerboard="true"
     inkscape:current-layer="g843">
    <inkscape:grid
       type="xygrid"
       id="grid1507"
       empspacing="8" />
  </sodipodi:namedview>
  <g
     inkscape:groupmode="layer"
     id="layer2"
     inkscape:label="Stroke 1"
     style="display:none"
     sodipodi:insensitive="true">
    <path
       sodipodi:nodetypes="ccccccc"
       id="path845"
       d="m 23,16 v 4 H 12 l -4,-4 4,-4 h 11 z"
       style="display:inline;fill:#000000;fill-opacity:1;stroke:#000000;stroke-width:1.5;stroke-linecap:round;stroke-linejoin:round;stroke-miterlimit:4;stroke-dasharray:none;stroke-opacity:1" />
    <path
       id="path843"
       style="fill:none;stroke:#ffffff;stroke-width:1.5;stroke-linecap:round;stroke-linejoin:miter;stroke-miterlimit:4;stroke-dasharray:none;stroke-opacity:1"
       d="m 15,19 6,-6 m -6,0 6,6"
       sodipodi:nodetypes="cccc" />
  </g>
  <g
     style="display:none"
     id="g841"
     inkscape:groupmode="layer"
     inkscape:label="Blur"
     sodipodi:insensitive="true">
    <use
       style="display:inline;filter:url(#filter1553)"
       x="0"
       y="0"
       xlink:href="#g843"
       id="use845"
       width="100%"
       height="100%" />
  </g>
  <g
     inkscape:label="Stroke"
     inkscape:groupmode="layer"
     id="layer1"
     style="display:inline">
    <g
       inkscape:label="g843"
       id="g843">
      <rect
         style="stroke:none;fill:none"
         y="6"
         x="6"
         height="20"
         width="20"
         id="rect839" />
      <path
         id="path868"
         style="color:#000000;fill:#000000;fill-opacity:1;fill-rule:nonzero"
         d="m 12,11.25 a 0.750075,0.750075 0 0 0 -0.53125,0.21875 l -4,4 a 0.750075,0.750075 0 0 0 0,1.0625 l 4,4 A 0.750075,0.750075 0 0 0 12,20.75 H 23 A 0.750075,0.750075 0 0 0 23.75,20 V 16 12 A 0.750075,0.750075 0 0 0 23,11.25 Z m 9.007812,0.998047 a 0.75,0.75 0 0 1 0.523438,0.220703 0.75,0.75 0 0 1 0,1.0625 L 19.0625,16 l 2.46875,2.46875 a 0.75,0.75 0 0 1 0,1.0625 0.75,0.75 0 0 1 -1.0625,0 L 18,17.0625 15.53125,19.53125 a 0.75,0.75 0 0 1 -1.0625,0 0.75,0.75 0 0 1 0,-1.0625 L 16.9375,16 14.46875,13.53125 a 0.75,0.75 0 0 1 0,-1.0625 0.75,0.75 0 0 1 0.537109,-0.21875 0.75,0.75 0 0 1 0.525391,0.21875 L 18,14.9375 20.46875,12.46875 a 0.75,0.75 0 0 1 0.539062,-0.220703 z" />
    </g>
  </g>
</svg>
