<?xml version="1.0" encoding="UTF-8" standalone="no"?>
<svg
   xmlns:dc="http://purl.org/dc/elements/1.1/"
   xmlns:cc="http://creativecommons.org/ns#"
   xmlns:rdf="http://www.w3.org/1999/02/22-rdf-syntax-ns#"
   xmlns:svg="http://www.w3.org/2000/svg"
   xmlns="http://www.w3.org/2000/svg"
   xmlns:xlink="http://www.w3.org/1999/xlink"
   xmlns:sodipodi="http://sodipodi.sourceforge.net/DTD/sodipodi-0.dtd"
   xmlns:inkscape="http://www.inkscape.org/namespaces/inkscape"
   width="32"
   height="32"
   viewBox="0 0 32 32"
   version="1.1"
   id="svg944"
   inkscape:version="1.0 (4035a4fb49, 2020-05-01)"
   sodipodi:docname="Random.svg"
   inkscape:export-filename="Random.png"
   inkscape:export-xdpi="96"
   inkscape:export-ydpi="96">
  <defs
     id="defs938">
    <filter
       style="color-interpolation-filters:sRGB"
       inkscape:label="Blur"
       id="filter1553"
       x="0"
       y="0"
       width="1"
       height="1">
      <feGaussianBlur
         stdDeviation="1 1"
         result="blur"
         id="feGaussianBlur1551" />
    </filter>
  </defs>
  <sodipodi:namedview
     id="base"
     pagecolor="#ffffff"
     bordercolor="#666666"
     borderopacity="1.0"
     inkscape:pageopacity="0.0"
     inkscape:pageshadow="2"
     inkscape:document-units="px"
     showgrid="false"
     units="px"
     inkscape:pagecheckerboard="true"
     inkscape:current-layer="layer1">
    <inkscape:grid
       type="xygrid"
       id="grid1507"
       empspacing="8" />
  </sodipodi:namedview>
  <metadata
     id="metadata941">
    <rdf:RDF>
      <cc:Work
         rdf:about="">
        <dc:format>image/svg+xml</dc:format>
        <dc:type
           rdf:resource="http://purl.org/dc/dcmitype/StillImage" />
        <dc:title></dc:title>
      </cc:Work>
    </rdf:RDF>
  </metadata>
  <g
     style="display:none"
     id="g841"
     inkscape:groupmode="layer"
     inkscape:label="Blur"
     sodipodi:insensitive="true">
    <use
       style="display:inline;filter:url(#filter1553)"
       x="0"
       y="0"
       xlink:href="#layer1"
       id="use845"
       width="100%"
       height="100%" />
  </g>
  <g
     inkscape:label="Stroke"
     inkscape:groupmode="layer"
     id="layer1"
     style="display:inline">
    <rect
       style="fill:none;stroke:none"
       id="rect839"
       width="24"
       height="24"
       x="4"
       y="4" />
    <path
       id="path840"
       d="M 16,9 H 9 V 23 H 23 V 9 Z"
       style="fill:none;stroke:#000000;stroke-width:1.5;stroke-linecap:round;stroke-linejoin:round;stroke-miterlimit:4;stroke-dasharray:none;stroke-opacity:1" />
    <path
       d="M 21,19.5 A 1.5,1.5 0 0 1 19.5,21 1.5,1.5 0 0 1 18,19.5 1.5,1.5 0 0 1 19.5,18 1.5,1.5 0 0 1 21,19.5 m -7,-7 A 1.5,1.5 0 0 1 12.5,14 1.5,1.5 0 0 1 11,12.5 1.5,1.5 0 0 1 12.5,11 1.5,1.5 0 0 1 14,12.5 M 17.5,16 A 1.5,1.5 0 0 1 16,17.5 1.5,1.5 0 0 1 14.5,16 1.5,1.5 0 0 1 16,14.5 1.5,1.5 0 0 1 17.5,16 Z"
       style="fill:#000000;fill-opacity:1;stroke:none"
       id="ellipse846" />
  </g>
</svg>
