<?xml version="1.0" encoding="UTF-8" standalone="no"?>
<svg
	xmlns:dc="http://purl.org/dc/elements/1.1/"
	xmlns:cc="http://creativecommons.org/ns#"
	xmlns:rdf="http://www.w3.org/1999/02/22-rdf-syntax-ns#"
	xmlns:svg="http://www.w3.org/2000/svg"
	xmlns="http://www.w3.org/2000/svg"
	xmlns:xlink="http://www.w3.org/1999/xlink"
	xmlns:sodipodi="http://sodipodi.sourceforge.net/DTD/sodipodi-0.dtd"
	xmlns:inkscape="http://www.inkscape.org/namespaces/inkscape"
	version="1.1"
	id="svg1"
	width="32"
	height="32"
	viewBox="0 0 32 32"
	inkscape:version="1.0 (4035a4fb49, 2020-05-01)"
	sodipodi:docname="Random.svg"
	inkscape:export-filename="Random.png"
	inkscape:export-xdpi="96"
	inkscape:export-ydpi="96"
>
	<metadata
		id="metadata">
		<rdf:RDF>
			<cc:Work
				rdf:about="">
				<dc:format>image/svg+xml</dc:format>
				<dc:type
					rdf:resource="http://purl.org/dc/dcmitype/StillImage"
				/>
				<dc:title>Random Icon</dc:title>
				<cc:license
					rdf:resource=""
				/>
				<dc:creator>
					<cc:Agent>
						<dc:title>zawa-ch.</dc:title>
					</cc:Agent>
				</dc:creator>
			</cc:Work>
		</rdf:RDF>
	</metadata>
	<defs
		id="defs">
		<filter
			id="filter1"
			inkscape:label="Blur"
			style="color-interpolation-filters:sRGB"
			x="0"
			y="0"
			width="1"
			height="1"
		>
			<feGaussianBlur
				id="feGaussianBlur1"
				result="blur"
				stdDeviation="1 1"
			/>
		</filter>
	</defs>
	<sodipodi:namedview
		id="base"
		units="px"
		pagecolor="#ffffff"
		bordercolor="#666666"
		borderopacity="1.0"
		inkscape:pagecheckerboard="true"
		inkscape:document-units="px"
		inkscape:pageshadow="2"
		inkscape:pageopacity="0.0"
		inkscape:zoom="1"
		inkscape:cy="16"
		inkscape:cx="16"
		inkscape:current-layer="layer1"
	>
		<inkscape:grid
			id="grid1"
			type="xygrid"
			empspacing="8"
		/>
		<inkscape:grid
			id="grid2"
			type="xygrid"
			spacingy="0.5"
			spacingx="0.5"
			empspacing="16"
			dotted="true"
		/>
	</sodipodi:namedview>
	<g
		id="layer_b"
		style="display:none"
		inkscape:label="Blur"
		inkscape:groupmode="layer"
		sodipodi:insensitive="true"
	>
		<use
			id="use7"
			xlink:href="#layer7"
			style="display:inline;filter:url(#filter1)"
		/>
		<use
			id="use6"
			xlink:href="#layer6"
			style="display:inline;filter:url(#filter1)"
		/>
		<use
			id="use5"
			xlink:href="#layer5"
			style="display:inline;filter:url(#filter1)"
		/>
		<use
			id="use4"
			xlink:href="#layer4"
			style="display:inline;filter:url(#filter1)"
		/>
		<use
			id="use3"
			xlink:href="#layer3"
			style="display:inline;filter:url(#filter1)"
		/>
		<use
			id="use2"
			xlink:href="#layer2"
			style="display:inline;filter:url(#filter1)"
		/>
		<use
			id="use1"
			xlink:href="#layer1"
			style="display:inline;filter:url(#filter1)"
		/>
	</g>
	<g
		id="layer7"
		style="display:none"
		inkscape:label="Layer 6"
		inkscape:groupmode="layer"
	>
		<path
			id="rect7"
			d="M 4,4 H 28 V 28 H 4 Z"
			style="fill:none;stroke:none"
		/>
	</g>
	<g
		id="layer6"
		style="display:none"
		inkscape:label="Layer 5"
		inkscape:groupmode="layer"
	>
		<path
			id="rect6"
			d="M 4,4 H 28 V 28 H 4 Z"
			style="fill:none;stroke:none"
		/>
	</g>
	<g
		id="layer5"
		style="display:none"
		inkscape:label="Layer 4"
		inkscape:groupmode="layer"
	>
		<path
			id="rect5"
			d="M 4,4 H 28 V 28 H 4 Z"
			style="fill:none;stroke:none"
		/>
	</g>
	<g
		id="layer4"
		style="display:inline"
		inkscape:label="Layer 3"
		inkscape:groupmode="layer"
	>
		<path
			id="rect4"
			d="M 4,4 H 28 V 28 H 4 Z"
			style="fill:none;stroke:none"
		/>
		<path
			d="M 21,19.5 A 1.5,1.5 0 0 1 19.5,21 1.5,1.5 0 0 1 18,19.5 1.5,1.5 0 0 1 19.5,18 1.5,1.5 0 0 1 21,19.5 m -7,-7 A 1.5,1.5 0 0 1 12.5,14 1.5,1.5 0 0 1 11,12.5 1.5,1.5 0 0 1 12.5,11 1.5,1.5 0 0 1 14,12.5 M 17.5,16 A 1.5,1.5 0 0 1 16,17.5 1.5,1.5 0 0 1 14.5,16 1.5,1.5 0 0 1 16,14.5 1.5,1.5 0 0 1 17.5,16 Z"
			style="fill:#000000;stroke:none"
			id="ellipse846"
		/>
	</g>
	<g
		id="layer3"
		style="display:none"
		inkscape:label="Layer 2"
		inkscape:groupmode="layer"
	>
		<path
			id="rect3"
			d="M 4,4 H 28 V 28 H 4 Z"
			style="fill:none;stroke:none"
		/>
	</g>
	<g
		id="layer2"
		style="display:none"
		inkscape:label="Layer 1"
		inkscape:groupmode="layer"
	>
		<path
			id="rect2"
			d="M 4,4 H 28 V 28 H 4 Z"
			style="fill:none;stroke:none"
		/>
	</g>
	<g
		id="layer1"
		style="display:inline"
		inkscape:label="Layer Frame"
		inkscape:groupmode="layer"
	>
		<path
			id="rect1"
			d="M 4,4 H 28 V 28 H 4 Z"
			style="fill:none;stroke:none"
		/>
		<path
			id="path1"
			d="M 16,9 H 9 V 23 H 23 V 9 Z"
			style="fill:none;stroke:#000000;stroke-width:1.5;stroke-linecap:round;stroke-linejoin:round"
		/>
	</g>
</svg>
